<svg xmlns="http://www.w3.org/2000/svg" xmlns:xlink="http://www.w3.org/1999/xlink" version="1.0" x="0" y="0" width="2400" height="883.7218238375901" viewBox="78.95480560302734 91.4755728149414 182.09038879394532 67.04885437011718" preserveAspectRatio="xMidYMid meet" color-interpolation-filters="sRGB"><g><defs><linearGradient id="92" x1="0%" y1="0%" x2="100%" y2="0%"><stop offset="0%" stop-color="#fa71cd"></stop> <stop offset="100%" stop-color="#9b59b6"></stop></linearGradient><linearGradient id="93" x1="0%" y1="0%" x2="100%" y2="0%"><stop offset="0%" stop-color="#f9d423"></stop> <stop offset="100%" stop-color="#f83600"></stop></linearGradient><linearGradient id="94" x1="0%" y1="0%" x2="100%" y2="0%"><stop offset="0%" stop-color="#0064d2"></stop> <stop offset="100%" stop-color="#1cb0f6"></stop></linearGradient><linearGradient id="95" x1="0%" y1="0%" x2="100%" y2="0%"><stop offset="0%" stop-color="#f00978"></stop> <stop offset="100%" stop-color="#3f51b1"></stop></linearGradient><linearGradient id="96" x1="0%" y1="0%" x2="100%" y2="0%"><stop offset="0%" stop-color="#7873f5"></stop> <stop offset="100%" stop-color="#ec77ab"></stop></linearGradient><linearGradient id="97" x1="0%" y1="0%" x2="100%" y2="0%"><stop offset="0%" stop-color="#f9d423"></stop> <stop offset="100%" stop-color="#e14fad"></stop></linearGradient><linearGradient id="98" x1="0%" y1="0%" x2="100%" y2="0%"><stop offset="0%" stop-color="#009efd"></stop> <stop offset="100%" stop-color="#2af598"></stop></linearGradient><linearGradient id="99" x1="0%" y1="0%" x2="100%" y2="0%"><stop offset="0%" stop-color="#ffcc00"></stop> <stop offset="100%" stop-color="#00b140"></stop></linearGradient><linearGradient id="100" x1="0%" y1="0%" x2="100%" y2="0%"><stop offset="0%" stop-color="#d51007"></stop> <stop offset="100%" stop-color="#ff8177"></stop></linearGradient><linearGradient id="102" x1="0%" y1="0%" x2="100%" y2="0%"><stop offset="0%" stop-color="#a2b6df"></stop> <stop offset="100%" stop-color="#0c3483"></stop></linearGradient><linearGradient id="103" x1="0%" y1="0%" x2="100%" y2="0%"><stop offset="0%" stop-color="#7ac5d8"></stop> <stop offset="100%" stop-color="#eea2a2"></stop></linearGradient><linearGradient id="104" x1="0%" y1="0%" x2="100%" y2="0%"><stop offset="0%" stop-color="#00ecbc"></stop> <stop offset="100%" stop-color="#007adf"></stop></linearGradient><linearGradient id="105" x1="0%" y1="0%" x2="100%" y2="0%"><stop offset="0%" stop-color="#b88746"></stop> <stop offset="100%" stop-color="#fdf5a6"></stop></linearGradient></defs><g fill="#535459" class="icon-text-wrapper icon-svg-group iconsvg" transform="translate(80.74000549316406,93.26077270507812)"><g class="iconsvg-imagesvg" transform="translate(59.25999450683594,0)"><g><rect fill="#535459" fill-opacity="0" stroke-width="2" x="0" y="0" width="60" height="21.898449589769044" class="image-rect"></rect> <svg filter="url(#colors8320543749)" x="0" y="0" width="60" height="21.898449589769044" filtersec="colorsf2663088464" class="image-svg-svg primary" style="overflow: visible;"><svg xmlns="http://www.w3.org/2000/svg" xmlns:xlink="http://www.w3.org/1999/xlink" version="1.1" x="0px" y="0px" viewBox="10.002164840698242 35.400001525878906 80.00567626953125 29.20000457763672" xml:space="preserve"><path d="M64.57,35.4v9.35l-14.56-8.41L11.64,58.49c-1.57,0.9-2.1,2.91-1.2,4.47c0.61,1.05,1.71,1.64,2.84,1.64  c0.56,0,1.12-0.14,1.64-0.44l35.1-20.26l35.08,20.26c1.57,0.9,3.57,0.37,4.47-1.2c0.9-1.57,0.37-3.57-1.2-4.47L74.53,50.5V35.4  H64.57z"></path></svg></svg> <defs><filter id="colors8320543749"><feColorMatrix type="matrix" values="0 0 0 0 0.8984375  0 0 0 0 0.56640625  0 0 0 0 0.21875  0 0 0 1 0" class="icon-feColorMatrix "></feColorMatrix></filter> <filter id="colorsf2663088464"><feColorMatrix type="matrix" values="0 0 0 0 0.99609375  0 0 0 0 0.99609375  0 0 0 0 0.99609375  0 0 0 1 0" class="icon-fecolormatrix"></feColorMatrix></filter> <filter id="colorsb7170976580"><feColorMatrix type="matrix" values="0 0 0 0 0  0 0 0 0 0  0 0 0 0 0  0 0 0 1 0" class="icon-fecolormatrix"></feColorMatrix></filter></defs></g></g> <g transform="translate(0,28.898448944091797)"><g fill-rule="" class="tp-name iconsvg-namesvg"><g transform="scale(1)"><g><path d="M8.74-11.53C9.74-11.53 11.94-10.82 12.83-8.18L15.62 0 21.57 0 21.57-3.35 19.08-3.72 16.74-9.93C16.4-10.82 15.99-11.42 15.4-11.9 18.22-13.02 20.08-15.77 20.08-18.78 20.08-22.8 16.85-26.03 12.79-26.03L0.74-26.03 0.74-22.69 2.98-22.31 2.98-3.72 0.74-3.35 0.74 0 9.67 0 9.67-3.35 7.44-3.72 7.44-11.53ZM15.62-18.41C15.62-16.85 14.36-15.62 12.79-15.62L7.44-15.62 7.44-21.94 12.79-21.94C14.36-21.94 15.62-20.71 15.62-19.15ZM31.43-14.5C32.17-14.5 32.73-14.02 32.73-13.2 32.73-12.57 32.36-12.09 31.61-11.9L27.15-10.79 27.15-13.2C27.15-13.95 27.71-14.5 28.45-14.5ZM36.45 0L36.45-4.09 29.75-4.09C28.34-4.09 27.3-4.95 27.15-6.51L32.54-7.81C34.88-8.37 37.19-10.04 37.19-13.2 37.19-16.36 34.88-18.6 31.61-18.6L27.89-18.6C24.92-18.6 22.69-16.21 22.69-13.2L22.69-7.07C22.69-3.2 25.88 0 29.75 0ZM55.79-13.39C55.79-16.36 53.26-18.6 50.21-18.6L48.72-18.6C47.42-18.6 46.12-18.04 45.37-17.48L44.63-18.6 39.05-18.6 39.05-15.25 41.28-14.88 41.28-3.72 39.05-3.35 39.05 0 47.98 0 47.98-3.35 45.74-3.72 45.74-11.71C45.74-13.39 47.05-14.5 48.72-14.5L49.83-14.5C50.76-14.5 51.32-13.76 51.32-13.02L51.32-3.72 49.09-3.35 49.09 0 58.02 0 58.02-3.35 55.79-3.72ZM60.25-14.88L60.25-5.76C60.25-2.6 62.67 0 65.83 0L68.8 0 68.8-4.09 66.38-4.09C65.45-4.09 64.71-4.83 64.71-5.76L64.71-14.5 68.43-14.88 68.43-18.6 64.71-18.6 64.71-26.03 60.66-26.03 60.25-18.6 58.02-18.6 58.02-15.25ZM85.72-11.53C86.73-11.53 88.92-10.82 89.81-8.18L92.6 0 98.55 0 98.55-3.35 96.06-3.72 93.72-9.93C93.38-10.82 92.98-11.42 92.38-11.9 95.21-13.02 97.07-15.77 97.07-18.78 97.07-22.8 93.83-26.03 89.78-26.03L77.73-26.03 77.73-22.69 79.96-22.31 79.96-3.72 77.73-3.35 77.73 0 86.65 0 86.65-3.35 84.42-3.72 84.42-11.53ZM92.6-18.41C92.6-16.85 91.34-15.62 89.78-15.62L84.42-15.62 84.42-21.94 89.78-21.94C91.34-21.94 92.6-20.71 92.6-19.15ZM108.41-14.5C109.15-14.5 109.71-14.02 109.71-13.2 109.71-12.57 109.34-12.09 108.6-11.9L104.13-10.79 104.13-13.2C104.13-13.95 104.69-14.5 105.43-14.5ZM113.43 0L113.43-4.09 106.74-4.09C105.32-4.09 104.28-4.95 104.13-6.51L109.52-7.81C111.87-8.37 114.17-10.04 114.17-13.2 114.17-16.36 111.87-18.6 108.6-18.6L104.88-18.6C101.9-18.6 99.67-16.21 99.67-13.2L99.67-7.07C99.67-3.2 102.87 0 106.74 0ZM116.03-15.25L118.26-14.88 118.26 4.83 116.03 5.21 116.03 8.55 124.96 8.55 124.96 5.21 122.73 4.83 122.73 0 125.33 0C129.42 0 132.77-2.98 132.77-7.07L132.77-13.02C132.77-15.99 130.54-18.6 127.19-18.6L116.03-18.6ZM128.31-7.07C128.31-5.36 127.19-4.09 125.33-4.09L122.73-4.09 122.73-14.5 126.82-14.5C127.75-14.5 128.31-13.8 128.31-13.02ZM144.67 0C148.02 0 150.62-2.79 150.62-6.14L150.62-13.2C150.62-16.21 148.43-18.6 145.41-18.6L140.95-18.6C137.94-18.6 135.74-16.21 135.74-13.2L135.74-6.14C135.74-2.79 138.35 0 141.69 0ZM142.07-4.09C140.95-4.09 140.21-4.83 140.21-5.95L140.21-13.2C140.21-13.95 140.76-14.5 141.51-14.5L144.86-14.5C145.6-14.5 146.16-13.95 146.16-13.2L146.16-5.95C146.16-4.83 145.41-4.09 144.3-4.09ZM163.64-14.5L164.01-12.27 167.36-12.27 167.36-18.6 162.52-18.6C161.22-18.6 159.92-18.07 159.17-17.48L158.43-18.6 152.85-18.6 152.85-15.25 155.08-14.88 155.08-3.72 152.85-3.35 152.85 0 161.78 0 161.78-3.35 159.55-3.72 159.55-11.53C159.55-13.39 160.66-14.5 162.52-14.5ZM170.7-14.88L170.7-5.76C170.7-2.6 173.12 0 176.28 0L179.26 0 179.26-4.09 176.84-4.09C175.91-4.09 175.17-4.83 175.17-5.76L175.17-14.5 178.88-14.88 178.88-18.6 175.17-18.6 175.17-26.03 171.11-26.03 170.7-18.6 168.47-18.6 168.47-15.25Z" transform="translate(-0.7400000095367432, 26.030000686645508)"></path></g> </g></g> </g></g><defs v-gra="od"></defs></g></svg>